<svg xmlns="http://www.w3.org/2000/svg" xmlns:xlink="http://www.w3.org/1999/xlink" width="88.852" height="98.948" viewBox="0 0 88.852 98.948">
  <defs>
    <linearGradient id="linear-gradient" x1="0.614" y1="0.032" x2="0.155" y2="1.122" gradientUnits="objectBoundingBox">
      <stop offset="0.081" stop-color="#1d97d5"/>
      <stop offset="0.35" stop-color="#1d72cf"/>
      <stop offset="0.745" stop-color="#1e40c9"/>
      <stop offset="1" stop-color="#021c2c"/>
    </linearGradient>
  </defs>
  <g id="グループ_18272" data-name="グループ 18272" transform="translate(-571.144 -4287.448)">
    <g id="グループ_18270" data-name="グループ 18270" transform="translate(578.805 4373.883)">
      <path id="パス_49667" data-name="パス 49667" d="M0,9.531S2.139-2,7.132.305,0,9.531,0,9.531Z" transform="matrix(0.643, -0.766, 0.766, 0.643, 0, 6.387)" fill="#0070c5"/>
      <path id="パス_49668" data-name="パス 49668" d="M0,7.158S1.606-1.5,5.355.229,0,7.158,0,7.158Z" transform="matrix(0.966, -0.259, 0.259, 0.966, 11.646, 4.883)" fill="#0070c5"/>
    </g>
    <g id="グループ_18269" data-name="グループ 18269" transform="translate(571.144 4287.448)">
      <g id="グループ_18268" data-name="グループ 18268" transform="translate(0 0)">
        <path id="パス_49669" data-name="パス 49669" d="M489.874,112.712a10.736,10.736,0,0,0-4.65,1.648,2.718,2.718,0,0,1-2.553.2,2.627,2.627,0,0,1-1.539-1.825,38.653,38.653,0,0,1-.8-5.4,37.577,37.577,0,0,1,31.1-39.8c1.145-.168,2.789-.154,2.111,1.376a19.176,19.176,0,0,1-6.7,7.414.843.843,0,0,0,.242,1.519,19.107,19.107,0,0,0,19.728-9.164l.007,0c1.217-2.184,2.959-2.376,4.909-2.258a73.454,73.454,0,0,1,22.224,5.406,2.675,2.675,0,0,0,1.043.179,2.178,2.178,0,0,0,1.51-3.578l0,0c-1.367-1.44-1.778-1.6-3.268-5.256a13.9,13.9,0,0,0-2.458-3.755A47.121,47.121,0,0,0,494.747,47.9l0,0A19.132,19.132,0,0,0,475.5,50.7a.82.82,0,0,0,.424,1.417,6.094,6.094,0,0,1,4.948,6.02,47.071,47.071,0,0,0,4.823,68.8,1.358,1.358,0,0,0,.918.284,1.321,1.321,0,0,0,1.22-1.415,3.164,3.164,0,0,0-.105-.447,8.109,8.109,0,0,1,2.961-10.248.687.687,0,0,0,.113-.088,1.3,1.3,0,0,0-.923-2.306Z" transform="translate(-468.169 -43.204)" fill="url(#linear-gradient)"/>
      </g>
    </g>
  </g>
</svg>
